{"asset":{"version":"2.0","generator":"Blockbench 4.10.4 glTF exporter"},"scenes":[{"nodes":[8],"name":"blockbench_export"}],"scene":0,"nodes":[{"translation":[0.20624999999999996,-0.012499999999999956,0],"name":"cuboid","mesh":0},{"name":"main_frame","mesh":1},{"translation":[0.20624999999999996,0.03125,0],"name":"cuboid","mesh":2},{"translation":[-0.3875000000000002,0.03125,0.05624999999999998],"name":"cuboid","mesh":3},{"translation":[0.06874999999999998,-0.018750000000000377,0.006249999999999997],"name":"cylinder","mesh":4},{"rotation":[0,0,0.7071067811865475,0.7071067811865476],"translation":[0.50625,-0.215625,0],"name":"cuboid","mesh":5},{"translation":[-0.3875000000000002,-0.012499999999999845,0.05624999999999998],"name":"cuboid","mesh":6},{"rotation":[0,0,0.7071067811865475,0.7071067811865476],"translation":[0,0.5625,0],"name":"floppy_disk","children":[0,1,2,3,4,5,6]},{"children":[7]}],"bufferViews":[{"buffer":0,"byteOffset":0,"byteLength":288,"target":34962,"byteStride":12},{"buffer":0,"byteOffset":288,"byteLength":288,"target":34962,"byteStride":12},{"buffer":0,"byteOffset":576,"byteLength":192,"target":34962,"byteStride":8},{"buffer":0,"byteOffset":768,"byteLength":72,"target":34963},{"buffer":0,"byteOffset":840,"byteLength":8376,"target":34962,"byteStride":12},{"buffer":0,"byteOffset":9216,"byteLength":8376,"target":34962,"byteStride":12},{"buffer":0,"byteOffset":17592,"byteLength":5584,"target":34962,"byteStride":8},{"buffer":0,"byteOffset":23176,"byteLength":2088,"target":34963},{"buffer":0,"byteOffset":25264,"byteLength":288,"target":34962,"byteStride":12},{"buffer":0,"byteOffset":25552,"byteLength":288,"target":34962,"byteStride":12},{"buffer":0,"byteOffset":25840,"byteLength":192,"target":34962,"byteStride":8},{"buffer":0,"byteOffset":26032,"byteLength":72,"target":34963},{"buffer":0,"byteOffset":26104,"byteLength":2880,"target":34962,"byteStride":12},{"buffer":0,"byteOffset":28984,"byteLength":2880,"target":34962,"byteStride":12},{"buffer":0,"byteOffset":31864,"byteLength":1920,"target":34962,"byteStride":8},{"buffer":0,"byteOffset":33784,"byteLength":720,"target":34963},{"buffer":0,"byteOffset":34504,"byteLength":1440,"target":34962,"byteStride":12},{"buffer":0,"byteOffset":35944,"byteLength":1440,"target":34962,"byteStride":12},{"buffer":0,"byteOffset":37384,"byteLength":960,"target":34962,"byteStride":8},{"buffer":0,"byteOffset":38344,"byteLength":288,"target":34963},{"buffer":0,"byteOffset":38632,"byteLength":288,"target":34962,"byteStride":12},{"buffer":0,"byteOffset":38920,"byteLength":288,"target":34962,"byteStride":12},{"buffer":0,"byteOffset":39208,"byteLength":192,"target":34962,"byteStride":8},{"buffer":0,"byteOffset":39400,"byteLength":72,"target":34963},{"buffer":0,"byteOffset":39472,"byteLength":2880,"target":34962,"byteStride":12},{"buffer":0,"byteOffset":42352,"byteLength":2880,"target":34962,"byteStride":12},{"buffer":0,"byteOffset":45232,"byteLength":1920,"target":34962,"byteStride":8},{"buffer":0,"byteOffset":47152,"byteLength":720,"target":34963}],"buffers":[{"byteLength":47872,"uri":"data:application/octet-stream;base64,"}],"accessors":[{"bufferView":0,"componentType":5126,"count":24,"max":[0.30000001192092896,0.012500000186264515,0.40625],"min":[0.16249999403953552,0,-0.40625],"type":"VEC3"},{"bufferView":1,"componentType":5126,"count":24,"max":[1,1,1],"min":[-1,-1,-1],"type":"VEC3"},{"bufferView":2,"componentType":5126,"count":24,"max":[0.78125,0.78125],"min":[0.171875,0.03125],"type":"VEC2"},{"bufferView":3,"componentType":5123,"count":36,"max":[23],"min":[0],"type":"SCALAR"},{"bufferView":4,"componentType":5126,"count":698,"max":[0.5,0.04374999925494194,0.5],"min":[-0.5,-0.012500000186264515,-0.5],"type":"VEC3"},{"bufferView":5,"componentType":5126,"count":698,"max":[1,1,1],"min":[-1,-1,-1],"type":"VEC3"},{"bufferView":6,"componentType":5126,"count":698,"max":[0.809374988079071,0.796875],"min":[0,0],"type":"VEC2"},{"bufferView":7,"componentType":5123,"count":1044,"max":[697],"min":[0],"type":"SCALAR"},{"bufferView":8,"componentType":5126,"count":24,"max":[0.30000001192092896,0.012500000186264515,0.40625],"min":[-0.25,0,-0.40625],"type":"VEC3"},{"bufferView":9,"componentType":5126,"count":24,"max":[1,1,1],"min":[-1,-1,-1],"type":"VEC3"},{"bufferView":10,"componentType":5126,"count":24,"max":[0.75,0.59375],"min":[0.15625,0.03125],"type":"VEC2"},{"bufferView":11,"componentType":5123,"count":36,"max":[23],"min":[0],"type":"SCALAR"},{"bufferView":12,"componentType":5126,"count":240,"max":[0.25,0.012500000186264515,0.23125000298023224],"min":[-0.11249999701976776,0,-0.23125000298023224],"type":"VEC3"},{"bufferView":13,"componentType":5126,"count":240,"max":[1,1,1],"min":[-1,-1,-1],"type":"VEC3"},{"bufferView":14,"componentType":5126,"count":240,"max":[0.757031261920929,0.643750011920929],"min":[0,0],"type":"VEC2"},{"bufferView":15,"componentType":5123,"count":360,"max":[239],"min":[0],"type":"SCALAR"},{"bufferView":16,"componentType":5126,"count":120,"max":[0.13750000298023224,0.0062500000931322575,0.13750000298023224],"min":[-0.13750000298023224,0,-0.13750000298023224],"type":"VEC3"},{"bufferView":17,"componentType":5126,"count":120,"max":[1,1,1],"min":[-1,-1,-1],"type":"VEC3"},{"bufferView":18,"componentType":5126,"count":120,"max":[0.7307578325271606,0.7046874761581421],"min":[0.0007812500116415322,0],"type":"VEC2"},{"bufferView":19,"componentType":5123,"count":144,"max":[119],"min":[0],"type":"SCALAR"},{"bufferView":20,"componentType":5126,"count":24,"max":[0.24703125655651093,0.012500000186264515,0.40625],"min":[0.21546874940395355,0,-0.40625],"type":"VEC3"},{"bufferView":21,"componentType":5126,"count":24,"max":[1,1,1],"min":[-1,-1,-1],"type":"VEC3"},{"bufferView":22,"componentType":5126,"count":24,"max":[0.78125,0.78125],"min":[0.171875,0.03125],"type":"VEC2"},{"bufferView":23,"componentType":5123,"count":36,"max":[23],"min":[0],"type":"SCALAR"},{"bufferView":24,"componentType":5126,"count":240,"max":[0.25,0.012500000186264515,0.23125000298023224],"min":[-0.11249999701976776,0,-0.23125000298023224],"type":"VEC3"},{"bufferView":25,"componentType":5126,"count":240,"max":[1,1,1],"min":[-1,-1,-1],"type":"VEC3"},{"bufferView":26,"componentType":5126,"count":240,"max":[0.757031261920929,0.643750011920929],"min":[0,0],"type":"VEC2"},{"bufferView":27,"componentType":5123,"count":360,"max":[239],"min":[0],"type":"SCALAR"}],"materials":[{"pbrMetallicRoughness":{"metallicFactor":0,"roughnessFactor":1,"baseColorTexture":{"index":0}},"alphaMode":"MASK","alphaCutoff":0.05,"doubleSided":true}],"textures":[{"sampler":0,"source":0,"name":"texture"}],"samplers":[{"magFilter":9728,"minFilter":9728,"wrapS":33071,"wrapT":33071}],"images":[{"mimeType":"image/png","uri":"data:image/png;base64,"}],"meshes":[{"primitives":[{"mode":4,"attributes":{"POSITION":0,"NORMAL":1,"TEXCOORD_0":2},"indices":3,"material":0}]},{"primitives":[{"mode":4,"attributes":{"POSITION":4,"NORMAL":5,"TEXCOORD_0":6},"indices":7,"material":0}]},{"primitives":[{"mode":4,"attributes":{"POSITION":8,"NORMAL":9,"TEXCOORD_0":10},"indices":11,"material":0}]},{"primitives":[{"mode":4,"attributes":{"POSITION":12,"NORMAL":13,"TEXCOORD_0":14},"indices":15,"material":0}]},{"primitives":[{"mode":4,"attributes":{"POSITION":16,"NORMAL":17,"TEXCOORD_0":18},"indices":19,"material":0}]},{"primitives":[{"mode":4,"attributes":{"POSITION":20,"NORMAL":21,"TEXCOORD_0":22},"indices":23,"material":0}]},{"primitives":[{"mode":4,"attributes":{"POSITION":24,"NORMAL":25,"TEXCOORD_0":26},"indices":27,"material":0}]}]}