{"asset":{"version":"2.0","generator":"Blockbench 4.10.4 glTF exporter"},"scenes":[{"nodes":[3],"name":"blockbench_export"}],"scene":0,"nodes":[{"translation":[0.40000000000000013,0.22500000000000026,0],"name":"button","mesh":0},{"translation":[0,0.03125000000000003,0],"name":"frame","mesh":1},{"translation":[0,-0.125,0],"name":"mouse","children":[0,1]},{"children":[2]}],"bufferViews":[{"buffer":0,"byteOffset":0,"byteLength":480,"target":34962,"byteStride":12},{"buffer":0,"byteOffset":480,"byteLength":480,"target":34962,"byteStride":12},{"buffer":0,"byteOffset":960,"byteLength":320,"target":34962,"byteStride":8},{"buffer":0,"byteOffset":1280,"byteLength":120,"target":34963},{"buffer":0,"byteOffset":1400,"byteLength":2616,"target":34962,"byteStride":12},{"buffer":0,"byteOffset":4016,"byteLength":2616,"target":34962,"byteStride":12},{"buffer":0,"byteOffset":6632,"byteLength":1744,"target":34962,"byteStride":8},{"buffer":0,"byteOffset":8376,"byteLength":624,"target":34963}],"buffers":[{"byteLength":9000,"uri":"data:application/octet-stream;base64,"}],"accessors":[{"bufferView":0,"componentType":5126,"count":40,"max":[0.16249999403953552,0.28125,0.23125000298023224],"min":[-0.16249999403953552,0.16875000298023224,-0.23125000298023224],"type":"VEC3"},{"bufferView":1,"componentType":5126,"count":40,"max":[1,0.9994738698005676,1],"min":[-1,-1,-1],"type":"VEC3"},{"bufferView":2,"componentType":5126,"count":40,"max":[1,0.9375],"min":[0.014871874824166298,0],"type":"VEC2"},{"bufferView":3,"componentType":5123,"count":60,"max":[39],"min":[0],"type":"SCALAR"},{"bufferView":4,"componentType":5126,"count":218,"max":[0.6187499761581421,0.44999998807907104,0.39375001192092896],"min":[-0.6187499761581421,0.125,-0.39375001192092896],"type":"VEC3"},{"bufferView":5,"componentType":5126,"count":218,"max":[1,1,1],"min":[-1,-1,-1],"type":"VEC3"},{"bufferView":6,"componentType":5126,"count":218,"max":[0.7009656429290771,0.53125],"min":[0.0013703125296160579,0],"type":"VEC2"},{"bufferView":7,"componentType":5123,"count":312,"max":[217],"min":[0],"type":"SCALAR"}],"materials":[{"pbrMetallicRoughness":{"metallicFactor":0,"roughnessFactor":1,"baseColorTexture":{"index":0}},"alphaMode":"MASK","alphaCutoff":0.05,"doubleSided":true},{"pbrMetallicRoughness":{"metallicFactor":0,"roughnessFactor":1,"baseColorTexture":{"index":1}},"alphaMode":"MASK","alphaCutoff":0.05,"doubleSided":true}],"textures":[{"sampler":0,"source":0,"name":"texture"},{"sampler":1,"source":1,"name":"texture"}],"samplers":[{"magFilter":9728,"minFilter":9728,"wrapS":33071,"wrapT":33071},{"magFilter":9728,"minFilter":9728,"wrapS":33071,"wrapT":33071}],"images":[{"mimeType":"image/png","uri":"data:image/png;base64,"},{"mimeType":"image/png","uri":"data:image/png;base64,"}],"meshes":[{"primitives":[{"mode":4,"attributes":{"POSITION":0,"NORMAL":1,"TEXCOORD_0":2},"indices":3,"material":0}]},{"primitives":[{"mode":4,"attributes":{"POSITION":4,"NORMAL":5,"TEXCOORD_0":6},"indices":7,"material":1}]}]}